<svg width="24" height="29" viewBox="0 0 24 29" fill="none" xmlns="http://www.w3.org/2000/svg">
<path fill-rule="evenodd" clip-rule="evenodd" d="M22.6277 5.42491L12.0598 0.98239C11.795 0.871132 11.4974 0.871077 11.2328 0.98239L0.664861 5.42491C0.262364 5.59415 0 5.99201 0 6.43328V11.8338C0 19.2699 4.439 25.9589 11.2387 28.769C11.4999 28.8769 11.7925 28.8769 12.0538 28.769C18.8534 25.9589 23.2925 19.27 23.2925 11.8338V6.43328C23.2925 5.99201 23.0302 5.59415 22.6277 5.42491ZM21.1353 11.8337C21.1353 18.1552 17.4689 23.9745 11.6458 26.5721C5.97827 24.0439 2.15625 18.3265 2.15625 11.8337V7.1621L11.6458 3.17285L21.1353 7.1621V11.8337ZM15.0903 10.8213L10.4553 15.5141L8.20416 13.2348C7.78306 12.8084 7.1003 12.8085 6.67915 13.2348C6.25799 13.6612 6.25799 14.3525 6.67915 14.7789L9.69283 17.8303C10.1139 18.2566 10.7966 18.2567 11.2178 17.8303L16.6153 12.3653C17.0364 11.939 17.0365 11.2477 16.6153 10.8213C16.1942 10.3948 15.5114 10.3949 15.0903 10.8213Z" fill="#EBEBFC"/>
</svg>
