<svg width="232" height="36" viewBox="0 0 232 36" fill="none" xmlns="http://www.w3.org/2000/svg">
<path d="M128.946 9.99701H133.578L126.288 24.357H120.34L113.074 9.99701H117.706L123.338 21.407L128.946 9.99701Z" fill="#EBEBFC"/>
<path d="M134.871 4.85278H139.04V8.48544H134.871V4.85278ZM134.871 9.99701H139.04V24.357H134.871V9.99701Z" fill="#EBEBFC"/>
<path d="M140.871 19.3103H145.04C145.04 20.8462 146.624 21.4314 151.281 21.4314C155.791 21.4314 156.523 21.1388 156.523 20.0173C156.523 18.9202 155.84 18.847 150.793 18.5301C144.479 18.1644 141.383 17.6768 141.383 14.2148C141.383 10.4602 145.771 9.75321 150.891 9.75321C156.303 9.75321 160.228 10.4602 160.228 14.4098H156.035C156.035 13.2152 154.523 12.9226 150.647 12.9226C146.697 12.9226 145.576 13.2152 145.576 14.0441C145.576 14.9462 146.332 15.0925 151.281 15.4582C156.888 15.8727 160.716 16.0189 160.716 19.8466C160.716 23.8938 157.059 24.6008 151.525 24.6008C145.99 24.6008 140.871 23.8938 140.871 19.3103Z" fill="#EBEBFC"/>
<path d="M178.227 9.99701H182.396V24.357H178.227V21.8458C176.179 23.4549 173.351 24.6008 169.865 24.6008C166.037 24.6008 162.453 23.2355 162.405 17.945L162.453 9.99701H166.647V16.3603C166.647 19.4078 167.671 20.9925 171.108 20.9925C173.912 20.9925 176.935 19.5541 178.227 18.0425V9.99701Z" fill="#EBEBFC"/>
<path d="M194.496 9.75321C200.493 9.75321 203.906 11.6793 203.955 17.116V24.357H199.762V22.5772C197.226 23.8206 194.423 24.6008 191.034 24.6008C187.011 24.6008 184.5 23.3086 184.5 20.0661C184.5 16.3359 188.596 15.1656 193.155 15.1656C195.617 15.1656 197.885 15.5557 199.762 16.1896C199.762 13.459 196.251 13.2396 194.301 13.2396C192.423 13.2396 190.132 13.4102 187.182 14.2879L185.694 11.2404C188.62 10.2896 191.497 9.75321 194.496 9.75321ZM199.762 19.8954V18.7739C198.299 18.3107 196.324 17.8962 193.667 17.8962C190.546 17.8962 188.669 18.4326 188.669 19.8954C188.669 21.407 190.058 21.5289 192.228 21.5289C194.496 21.5289 197.616 20.8218 199.762 19.8954Z" fill="#EBEBFC"/>
<path d="M206.153 4.85278H210.322V24.357H206.153V4.85278Z" fill="#EBEBFC"/>
<path d="M212.153 19.3103H216.322C216.322 20.8462 217.907 21.4314 222.564 21.4314C227.074 21.4314 227.805 21.1388 227.805 20.0173C227.805 18.9202 227.123 18.847 222.076 18.5301C215.762 18.1644 212.665 17.6768 212.665 14.2148C212.665 10.4602 217.054 9.75321 222.174 9.75321C227.586 9.75321 231.511 10.4602 231.511 14.4098H227.318C227.318 13.2152 225.806 12.9226 221.93 12.9226C217.98 12.9226 216.859 13.2152 216.859 14.0441C216.859 14.9462 217.614 15.0925 222.564 15.4582C228.171 15.8727 231.999 16.0189 231.999 19.8466C231.999 23.8938 228.342 24.6008 222.807 24.6008C217.273 24.6008 212.153 23.8938 212.153 19.3103Z" fill="#EBEBFC"/>
<path d="M83.9855 9.99701L74.6722 15.8727L83.9855 24.357H78.183L71.3077 18.0913L66.4073 21.0413V24.357H62.2383V4.85278H66.4073V16.4578L76.8664 9.99701H83.9855Z" fill="#EBEBFC"/>
<path d="M102.336 9.99701V13.4834L91.5842 20.8706H102.336V24.357H85.416V20.8706L96.1677 13.4834H85.416V9.99701H102.336Z" fill="#EBEBFC"/>
<path d="M53.4322 10.0384C57.1493 10.0384 60.4145 12.3294 60.4145 17.1977C60.4145 22.066 57.1493 24.3569 53.4322 24.3569H43V10.0384H53.4322ZM52.0358 20.8812C54.8287 20.8812 56.718 20.288 56.718 17.1977C56.718 13.7203 54.8287 13.5141 52.0358 13.5141H47.0835V20.8812H52.0358Z" fill="#EBEBFC"/>
<path opacity="0.1" d="M26.1876 13.2331C29.2802 15.3743 29.2802 19.9355 26.1876 22.0767L8.4765 34.3393C4.897 36.8176 -1.03511e-06 34.263 0 29.9175L5.84179e-06 5.39239C6.8769e-06 1.04679 4.89702 -1.50776 8.47651 0.970564L26.1876 13.2331Z" fill="#EBEBFC"/>
<path opacity="0.15" d="M24.07 14.4707C26.0987 16.1148 26.0987 19.1951 24.07 20.8392L7.97337 33.8842C4.78192 36.4706 -8.32852e-07 34.2137 0 30.121L5.07368e-06 5.18886C5.90653e-06 1.0962 4.78193 -1.1607 7.97337 1.4257L24.07 14.4707Z" fill="#EBEBFC"/>
<path opacity="0.15" d="M20.1505 14.7374C21.7902 16.3429 21.7902 18.9671 20.1505 20.5726L7.36468 33.0923C4.63241 35.7677 -6.41195e-07 33.8491 0 30.0421L4.17261e-06 5.26791C4.8138e-06 1.46091 4.63241 -0.457675 7.36467 2.21772L20.1505 14.7374Z" fill="#EBEBFC"/>
<path opacity="0.15" d="M16.6492 15.2811C17.7742 16.6634 17.7742 18.6468 16.6492 20.0291L6.66388 32.2985C4.43309 35.0396 -4.74565e-07 33.4603 0 29.9245L3.29356e-06 5.38563C3.76812e-06 1.84985 4.43309 0.270556 6.66387 3.01162L16.6492 15.2811Z" fill="#EBEBFC"/>
<path opacity="0.35" d="M13.1562 16.0951C13.7554 17.0514 13.7554 18.259 13.1562 19.2153L5.58097 31.3033C3.98513 33.8499 -3.09289e-07 32.7359 0 29.7432L2.4986e-06 5.5671C2.80788e-06 2.57445 3.98513 1.46046 5.58097 4.00702L13.1562 16.0951Z" fill="#EBEBFC"/>
<path opacity="0.4" d="M9.21859 16.79C9.45295 17.3433 9.45295 17.9668 9.21859 18.5201L4.33481 30.0499C3.38196 32.2995 -1.70426e-07 31.6246 0 29.1849L1.61086e-06 6.12519C1.78129e-06 3.68552 3.38197 3.01065 4.33482 5.26018L9.21859 16.79Z" fill="#EBEBFC"/>
<path opacity="0.9" d="M4.82582 17.3382C4.87026 17.5471 4.87026 17.7632 4.82582 17.9721L2.97789 26.6607C2.59992 28.4379 -6.37468e-08 28.1612 0 26.3437L6.09519e-07 8.96655C6.73265e-07 7.14914 2.59992 6.87239 2.97789 8.64955L4.82582 17.3382Z" fill="#EBEBFC"/>
</svg>
