<svg width="271" height="42" viewBox="0 0 271 42" fill="none" xmlns="http://www.w3.org/2000/svg">
<path d="M48.8564 9.09778H56.6984C60.4944 9.09778 63.4948 10.1834 65.6996 12.3545C67.9272 14.503 69.041 17.1717 69.041 20.3606C69.041 23.5494 67.9272 26.2294 65.6996 28.4006C63.4948 30.5491 60.4944 31.6234 56.6984 31.6234H48.8564V9.09778ZM53.323 27.6542H56.562C58.9942 27.6542 60.9376 26.9758 62.3924 25.6188C63.8471 24.2618 64.5745 22.5091 64.5745 20.3606C64.5745 18.212 63.8471 16.4593 62.3924 15.1023C60.9376 13.7454 58.9942 13.0669 56.562 13.0669H53.323V27.6542Z" fill="white"/>
<path d="M92.8383 31.6234H86.9398L78.2113 22.7013V31.6234H73.7448V9.09778H78.2113V18.2234L87.2126 9.09778H92.8383L81.7914 20.3606L92.8383 31.6234Z" fill="white"/>
<path d="M113.692 9.09778V13.0669L100.906 27.6542H113.692V31.6234H95.3827V27.6542L108.134 13.0669H95.3486V9.09778H113.692Z" fill="white"/>
<path d="M133.574 31.6234L124.078 9.2176H128.793L135.813 25.752L142.867 9.2176H147.445L137.949 31.6234H133.574Z" fill="white"/>
<path d="M155.355 9.2176V31.6234H150.912V9.2176H155.355Z" fill="white"/>
<path d="M169.638 32.062C164.234 32.062 160.832 29.8462 159.43 25.4145H163.94C164.935 27.2142 166.834 28.114 169.638 28.114C171.062 28.114 172.204 27.8553 173.063 27.3379C173.945 26.798 174.386 26.0894 174.386 25.2121C174.386 24.4022 174.081 23.7836 173.47 23.3562C172.882 22.9288 171.921 22.6476 170.587 22.5126L166.721 22.1414C164.46 21.9389 162.787 21.2753 161.702 20.1505C160.617 19.0032 160.074 17.5523 160.074 15.7976C160.074 13.7055 160.888 12.0183 162.516 10.7361C164.144 9.43131 166.314 8.77893 169.027 8.77893C171.65 8.77893 173.809 9.42006 175.505 10.7023C177.201 11.9846 178.354 13.5593 178.964 15.4264H174.454C174.069 14.6166 173.368 13.9642 172.351 13.4693C171.334 12.9744 170.203 12.7269 168.96 12.7269C167.535 12.7269 166.439 13.0081 165.67 13.5705C164.901 14.1329 164.517 14.8303 164.517 15.6626C164.517 17.1249 165.591 17.9797 167.739 18.2271L171.876 18.6321C174.047 18.857 175.742 19.5431 176.963 20.6904C178.207 21.8377 178.829 23.2887 178.829 25.0434C178.829 27.0005 178.015 28.6652 176.387 30.0374C174.782 31.3872 172.532 32.062 169.638 32.062Z" fill="white"/>
<path d="M183.165 22.2426V9.2176H187.608V22.2089C187.608 24.121 188.082 25.5833 189.032 26.5956C190.004 27.6079 191.349 28.114 193.068 28.114C194.786 28.114 196.12 27.6079 197.07 26.5956C198.019 25.5833 198.494 24.121 198.494 22.2089V9.2176H202.937V22.2426C202.937 25.347 202.044 27.7653 200.258 29.4975C198.471 31.2072 196.075 32.062 193.068 32.062C190.038 32.062 187.63 31.2072 185.844 29.4975C184.058 27.7653 183.165 25.347 183.165 22.2426Z" fill="white"/>
<path d="M220.184 9.2176L229.985 31.6234H225.271L223.067 26.6631H212.791L210.587 31.6234H206.042L215.843 9.2176H220.184ZM217.946 15.089L214.555 22.715H221.303L217.946 15.089Z" fill="white"/>
<path d="M237.72 9.2176V27.6754H249.081V31.6234H233.277V9.2176H237.72Z" fill="white"/>
<path d="M261.674 32.062C256.27 32.062 252.867 29.8462 251.466 25.4145H255.976C256.971 27.2142 258.87 28.114 261.674 28.114C263.098 28.114 264.24 27.8553 265.099 27.3379C265.981 26.798 266.422 26.0894 266.422 25.2121C266.422 24.4022 266.116 23.7836 265.506 23.3562C264.918 22.9288 263.957 22.6476 262.623 22.5126L258.757 22.1414C256.496 21.9389 254.823 21.2753 253.738 20.1505C252.653 19.0032 252.11 17.5523 252.11 15.7976C252.11 13.7055 252.924 12.0183 254.552 10.7361C256.18 9.43131 258.35 8.77893 261.063 8.77893C263.686 8.77893 265.845 9.42006 267.541 10.7023C269.237 11.9846 270.39 13.5593 271 15.4264H266.49C266.105 14.6166 265.404 13.9642 264.387 13.4693C263.369 12.9744 262.239 12.7269 260.995 12.7269C259.571 12.7269 258.474 13.0081 257.706 13.5705C256.937 14.1329 256.553 14.8303 256.553 15.6626C256.553 17.1249 257.627 17.9797 259.775 18.2271L263.912 18.6321C266.083 18.857 267.778 19.5431 268.999 20.6904C270.243 21.8377 270.864 23.2887 270.864 25.0434C270.864 27.0005 270.051 28.6652 268.423 30.0374C266.817 31.3872 264.568 32.062 261.674 32.062Z" fill="white"/>
<path opacity="0.1" d="M30.8558 15.5921C34.4997 18.115 34.4997 23.4892 30.8558 26.0122L9.98754 40.4606C5.76995 43.3808 -1.21963e-06 40.3708 0 35.2506L6.88316e-06 6.35364C8.10278e-06 1.2334 5.76996 -1.77654 9.98755 1.14358L30.8558 15.5921Z" fill="white"/>
<path opacity="0.15" d="M28.3608 17.0504C30.7511 18.9876 30.7511 22.6169 28.3608 24.5541L9.39471 39.9246C5.63435 42.972 -9.81317e-07 40.3128 0 35.4906L5.97812e-06 6.11394C6.95944e-06 1.29172 5.63436 -1.3675 9.39472 1.67996L28.3608 17.0504Z" fill="white"/>
<path opacity="0.15" d="M23.7426 17.3646C25.6745 19.2563 25.6745 22.3483 23.7426 24.24L8.67752 38.9915C5.45819 42.1438 -7.55496e-07 39.8832 0 35.3976L4.91642e-06 6.20706C5.67192e-06 1.72142 5.45819 -0.539177 8.67751 2.61313L23.7426 17.3646Z" fill="white"/>
<path opacity="0.15" d="M19.6171 18.005C20.9426 19.6337 20.9426 21.9707 19.6171 23.5994L7.85179 38.0561C5.22334 41.2857 -5.59161e-07 39.4249 0 35.2589L3.88067e-06 6.34561C4.43984e-06 2.17954 5.22334 0.318721 7.85179 3.54841L19.6171 18.005Z" fill="white"/>
<path opacity="0.35" d="M15.5014 18.9641C16.2075 20.0909 16.2075 21.5137 15.5014 22.6405L6.57585 36.8834C4.69553 39.8839 -3.64423e-07 38.5713 0 35.0452L2.944e-06 6.5594C3.30842e-06 3.03328 4.69553 1.7207 6.57585 4.72121L15.5014 18.9641Z" fill="white"/>
<path opacity="0.4" d="M10.8619 19.7831C11.138 20.435 11.138 21.1696 10.8619 21.8215L5.10754 35.4067C3.98483 38.0572 -2.00806e-07 37.262 0 34.3875L1.89801e-06 7.21708C2.09882e-06 4.34251 3.98484 3.54735 5.10755 6.19788L10.8619 19.7831Z" fill="white"/>
<path opacity="0.9" d="M5.68608 20.4288C5.73844 20.675 5.73844 20.9296 5.68608 21.1758L3.50874 31.4132C3.06338 33.5072 -7.51104e-08 33.1811 0 31.0397L7.18172e-07 10.5649C7.93283e-07 8.42347 3.06338 8.09738 3.50874 10.1913L5.68608 20.4288Z" fill="white"/>
</svg>
