<svg width="232" height="36" viewBox="0 0 232 36" fill="none" xmlns="http://www.w3.org/2000/svg">
<path d="M128.946 10.1442H133.578L126.288 24.5042H120.34L113.074 10.1442H117.706L123.338 21.5542L128.946 10.1442Z" fill="#EBEBFC"/>
<path d="M134.871 5H139.04V8.63266H134.871V5ZM134.871 10.1442H139.04V24.5042H134.871V10.1442Z" fill="#EBEBFC"/>
<path d="M140.871 19.4575H145.04C145.04 20.9934 146.624 21.5786 151.281 21.5786C155.791 21.5786 156.523 21.286 156.523 20.1645C156.523 19.0674 155.84 18.9943 150.793 18.6773C144.479 18.3116 141.383 17.824 141.383 14.362C141.383 10.6075 145.771 9.90043 150.891 9.90043C156.303 9.90043 160.228 10.6075 160.228 14.5571H156.035C156.035 13.3624 154.523 13.0699 150.647 13.0699C146.697 13.0699 145.576 13.3624 145.576 14.1914C145.576 15.0934 146.332 15.2397 151.281 15.6054C156.888 16.0199 160.716 16.1662 160.716 19.9939C160.716 24.041 157.059 24.748 151.525 24.748C145.99 24.748 140.871 24.041 140.871 19.4575Z" fill="#EBEBFC"/>
<path d="M178.227 10.1442H182.396V24.5042H178.227V21.993C176.179 23.6021 173.351 24.748 169.865 24.748C166.037 24.748 162.453 23.3827 162.405 18.0922L162.453 10.1442H166.647V16.5075C166.647 19.555 167.671 21.1397 171.108 21.1397C173.912 21.1397 176.935 19.7013 178.227 18.1897V10.1442Z" fill="#EBEBFC"/>
<path d="M194.496 9.90043C200.493 9.90043 203.906 11.8265 203.955 17.2633V24.5042H199.762V22.7244C197.226 23.9678 194.423 24.748 191.034 24.748C187.011 24.748 184.5 23.4558 184.5 20.2133C184.5 16.4831 188.596 15.3128 193.155 15.3128C195.617 15.3128 197.885 15.7029 199.762 16.3368C199.762 13.6062 196.251 13.3868 194.301 13.3868C192.423 13.3868 190.132 13.5575 187.182 14.4352L185.694 11.3876C188.62 10.4368 191.497 9.90043 194.496 9.90043ZM199.762 20.0426V18.9211C198.299 18.4579 196.324 18.0434 193.667 18.0434C190.546 18.0434 188.669 18.5798 188.669 20.0426C188.669 21.5542 190.058 21.6761 192.228 21.6761C194.496 21.6761 197.616 20.9691 199.762 20.0426Z" fill="#EBEBFC"/>
<path d="M206.153 5H210.322V24.5042H206.153V5Z" fill="#EBEBFC"/>
<path d="M212.153 19.4575H216.322C216.322 20.9934 217.907 21.5786 222.564 21.5786C227.074 21.5786 227.805 21.286 227.805 20.1645C227.805 19.0674 227.123 18.9943 222.076 18.6773C215.762 18.3116 212.665 17.824 212.665 14.362C212.665 10.6075 217.054 9.90043 222.174 9.90043C227.586 9.90043 231.511 10.6075 231.511 14.5571H227.318C227.318 13.3624 225.806 13.0699 221.93 13.0699C217.98 13.0699 216.859 13.3624 216.859 14.1914C216.859 15.0934 217.614 15.2397 222.564 15.6054C228.171 16.0199 231.999 16.1662 231.999 19.9939C231.999 24.041 228.342 24.748 222.807 24.748C217.273 24.748 212.153 24.041 212.153 19.4575Z" fill="#EBEBFC"/>
<path d="M83.9855 10.1442L74.6722 16.0199L83.9855 24.5042H78.183L71.3077 18.2385L66.4073 21.1885V24.5042H62.2383V5H66.4073V16.605L76.8664 10.1442H83.9855Z" fill="#EBEBFC"/>
<path d="M102.336 10.1442V13.6306L91.5842 21.0178H102.336V24.5042H85.416V21.0178L96.1677 13.6306H85.416V10.1442H102.336Z" fill="#EBEBFC"/>
<path d="M53.4322 10.1855C57.1493 10.1855 60.4145 12.4765 60.4145 17.3448C60.4145 22.2131 57.1493 24.5041 53.4322 24.5041H43V10.1855H53.4322ZM52.0358 21.0284C54.8287 21.0284 56.718 20.4352 56.718 17.3448C56.718 13.8675 54.8287 13.6613 52.0358 13.6613H47.0835V21.0284H52.0358Z" fill="#EBEBFC"/>
<path opacity="0.1" d="M26.1876 13.3803C29.2802 15.5216 29.2802 20.0827 26.1876 22.224L8.4765 34.4865C4.897 36.9648 -1.03511e-06 34.4103 0 30.0647L5.84179e-06 5.5396C6.8769e-06 1.19401 4.89702 -1.36055 8.47651 1.11778L26.1876 13.3803Z" fill="#EBEBFC"/>
<path opacity="0.15" d="M24.07 14.6181C26.0987 16.2622 26.0987 19.3424 24.07 20.9865L7.97337 34.0315C4.78192 36.6179 -8.32852e-07 34.361 0 30.2684L5.07368e-06 5.3362C5.90653e-06 1.24354 4.78193 -1.01336 7.97337 1.57304L24.07 14.6181Z" fill="#EBEBFC"/>
<path opacity="0.15" d="M20.1505 14.8847C21.7902 16.4902 21.7902 19.1143 20.1505 20.7198L7.36468 33.2395C4.63241 35.9149 -6.41195e-07 33.9963 0 30.1893L4.17261e-06 5.41513C4.8138e-06 1.60813 4.63241 -0.310458 7.36467 2.36493L20.1505 14.8847Z" fill="#EBEBFC"/>
<path opacity="0.15" d="M16.6492 15.4282C17.7742 16.8104 17.7742 18.7939 16.6492 20.1762L6.66388 32.4456C4.43309 35.1867 -4.74565e-07 33.6074 0 30.0716L3.29356e-06 5.53272C3.76812e-06 1.99694 4.43309 0.41765 6.66387 3.15871L16.6492 15.4282Z" fill="#EBEBFC"/>
<path opacity="0.35" d="M13.1562 16.2422C13.7554 17.1985 13.7554 18.4061 13.1562 19.3624L5.58098 31.4504C3.98513 33.997 -3.09289e-07 32.883 0 29.8903L2.4986e-06 5.7142C2.80788e-06 2.72155 3.98513 1.60756 5.58097 4.15411L13.1562 16.2422Z" fill="#EBEBFC"/>
<path opacity="0.4" d="M9.21859 16.9373C9.45295 17.4905 9.45295 18.114 9.21859 18.6673L4.33481 30.1971C3.38196 32.4467 -1.70426e-07 31.7718 0 29.3321L1.61086e-06 6.27241C1.78129e-06 3.83273 3.38197 3.15787 4.33482 5.4074L9.21859 16.9373Z" fill="#EBEBFC"/>
<path opacity="0.9" d="M4.82582 17.4852C4.87026 17.6942 4.87026 17.9103 4.82582 18.1192L2.97789 26.8078C2.59992 28.585 -6.37468e-08 28.3082 0 26.4908L6.09519e-07 9.11364C6.73265e-07 7.29624 2.59992 7.01948 2.97789 8.79665L4.82582 17.4852Z" fill="#EBEBFC"/>
</svg>
