<svg width="177" height="183" viewBox="0 0 177 183" fill="none" xmlns="http://www.w3.org/2000/svg">
<path d="M172.532 65.0662L174.012 68.9151L160.056 68.2157L158.29 63.6212L165.236 56.9046L155.61 56.6488L153.844 52.0542L163.695 42.0734L165.174 45.9224L157.473 53.3965L168.063 53.4388L169.643 57.5497L161.862 64.754L172.532 65.0662Z" fill="white"/>
<path d="M175.036 85.3456C175.173 90.6655 173.542 93.7485 168.718 93.9482L162.292 94.1566L162.197 90.437L163.776 90.3858C162.615 88.1725 161.858 85.708 161.781 82.7021C161.689 79.1339 162.778 76.8692 165.656 76.7759C168.966 76.6686 170.098 80.268 170.203 84.312C170.259 86.4961 169.964 88.5186 169.445 90.202C171.868 90.1234 171.982 87.003 171.938 85.2729C171.895 83.6078 171.691 81.5799 170.845 78.9884L173.516 77.5816C174.426 80.1493 174.968 82.6857 175.036 85.3456ZM166.156 90.3086L167.151 90.2763C167.529 88.9655 167.852 87.2019 167.791 84.8447C167.72 82.0766 167.201 80.4269 165.903 80.469C164.561 80.5125 164.485 81.7487 164.534 83.6733C164.586 85.6845 165.285 88.4322 166.156 90.3086Z" fill="white"/>
<path d="M168.422 112.375L169.702 106.467L166.106 105.712C163.695 105.205 162.981 105.542 162.504 107.745C162.256 108.888 162.118 109.523 162.013 111.029L159.095 110.416C159.144 109.164 159.337 107.766 159.699 106.093C160.397 102.874 162.052 101.052 164.801 101.63L170.491 102.825L171.202 99.543L174.227 100.178L173.516 103.461L176.096 104.003L176.344 107.863L172.727 107.103L171.447 113.011L168.422 112.375Z" fill="white"/>
<path d="M163.965 116.194C168.188 118.22 168.348 122.243 166.037 127.005C163.954 131.3 161.085 133.653 157.453 132.584L159.11 129.168C160.807 129.429 162.08 128.091 163.254 125.67C164.646 122.801 164.74 120.68 162.346 119.532C159.972 118.393 158.36 119.785 156.968 122.655C155.794 125.075 155.533 126.899 156.794 128.057L155.137 131.473C152.035 129.311 152.102 125.614 154.185 121.32C156.496 116.557 159.761 114.177 163.965 116.194Z" fill="white"/>
<path d="M151.063 149.019C148.81 151.577 145.793 153.174 142.249 150.117L136.997 145.442L139.466 142.64L143.694 146.356C145.718 148.137 147.374 148.378 149.398 146.081C151.049 144.208 151.873 141.348 151.629 139.601L146.284 134.902L148.738 132.116L161.697 143.509L159.243 146.294L154.156 141.823C154.02 144.131 153.116 146.69 151.063 149.019Z" fill="white"/>
<path d="M117.299 171.921L113.543 173.622L114.257 159.343L119.079 157.159L130.165 166.094L126.41 167.794L117.716 160.643L117.299 171.921Z" fill="white"/>
<path d="M108.882 179.345L105.281 180.224L104.536 177.093L108.136 176.214L108.882 179.345ZM107.826 174.911L104.226 175.79L101.279 163.411L104.88 162.532L107.826 174.911Z" fill="white"/>
<path d="M84.8847 182.642L81.1881 182.848L80.3435 165.565L84.0401 165.36L84.1372 167.347C85.45 165.823 87.6396 164.943 90.3851 164.791C94.4708 164.564 98.0562 166.076 98.2938 170.937C98.5314 175.797 95.1138 177.72 91.0281 177.947C88.2826 178.1 86.0191 177.467 84.5648 176.097L84.8847 182.642ZM89.3039 167.948C85.9964 168.132 84.228 169.205 84.3505 171.711C84.474 174.239 86.3374 175.11 89.6449 174.926C92.9524 174.743 94.6991 173.671 94.5756 171.143C94.4531 168.637 92.6114 167.765 89.3039 167.948Z" fill="white"/>
<path d="M67.9531 166.234C65.4614 165.69 63.8366 165.824 62.6436 166.894L59.0539 166.111C60.5898 163.119 64.0099 162.291 68.6132 163.295C73.3431 164.327 76.5994 166.988 75.5736 171.555C74.543 176.143 70.5565 177.225 65.5098 176.124C60.7799 175.092 57.3658 172.64 58.6386 166.974L72.0683 169.903C72.1135 167.829 70.3603 166.759 67.9531 166.234ZM66.1483 173.38C68.6189 173.919 70.4596 173.81 71.4239 172.18L61.9851 170.121C62.2033 172.009 63.8678 172.883 66.1483 173.38Z" fill="white"/>
<path d="M49.1862 156.275C53.8482 158.724 56.0868 162.057 53.8906 166.197C51.6841 170.357 47.6559 170.397 42.994 167.948C38.3512 165.51 36.0934 162.167 38.2999 158.007C40.4961 153.867 44.5434 153.836 49.1862 156.275ZM47.7322 159.016C44.7135 157.43 42.8266 157.395 41.5861 159.734C40.3355 162.091 41.4292 163.622 44.448 165.207C47.4859 166.803 49.3727 166.838 50.6234 164.481C51.8639 162.142 50.7701 160.612 47.7322 159.016Z" fill="white"/>
<path d="M4.4652 117.934L2.98575 114.085L16.942 114.784L18.708 119.379L11.762 126.096L21.388 126.351L23.1541 130.946L13.3031 140.927L11.8237 137.078L19.5242 129.604L8.93451 129.561L7.35437 125.45L15.1354 118.246L4.4652 117.934Z" fill="white"/>
<path d="M1.96131 97.6545C1.82438 92.3346 3.4557 89.2516 8.27946 89.0519L14.7054 88.8435L14.8011 92.5631L13.2217 92.6143C14.383 94.8276 15.1394 97.2921 15.2168 100.298C15.3086 103.866 14.2192 106.131 11.3416 106.224C8.0313 106.332 6.89925 102.732 6.79516 98.6882C6.73894 96.504 7.03334 94.4816 7.55302 92.7982C5.12977 92.8768 5.01521 95.9972 5.05974 97.7272C5.1026 99.3924 5.30637 101.42 6.15263 104.012L3.48207 105.419C2.57146 102.851 2.02978 100.314 1.96131 97.6545ZM10.8417 92.6915L9.84646 92.7238C9.46877 94.0347 9.14604 95.7983 9.20672 98.1554C9.27797 100.924 9.79682 102.573 11.095 102.531C12.4364 102.488 12.5129 101.251 12.4633 99.3268C12.4116 97.3156 11.7129 94.5679 10.8417 92.6915Z" fill="white"/>
<path d="M8.57531 70.6247L7.29545 76.5327L10.8912 77.2881C13.3025 77.7948 14.0168 77.4578 14.4939 75.2555C14.7416 74.112 14.8792 73.4767 14.9842 71.9712L17.9032 72.5844C17.8532 73.8359 17.6608 75.2345 17.2984 76.9074C16.6011 80.1261 14.9459 81.948 12.1962 81.3703L6.50643 80.1749L5.7954 83.4571L2.77072 82.8216L3.48175 79.5394L0.90126 78.9972L0.653845 75.1373L4.27077 75.8972L5.55063 69.9892L8.57531 70.6247Z" fill="white"/>
<path d="M13.0325 66.8061C8.80933 64.7801 8.64976 60.7574 10.9604 55.9948C13.0438 51.7006 15.9128 49.3474 19.5449 50.416L17.8876 53.8318C16.1907 53.5712 14.9177 54.9095 13.7434 57.3299C12.3514 60.1992 12.2581 62.32 14.6518 63.4683C17.0262 64.6074 18.6375 63.2148 20.0295 60.3455C21.2038 57.9251 21.4648 56.1013 20.2036 54.9428L21.8608 51.527C24.9625 53.6887 24.8959 57.3864 22.8125 61.6806C20.5019 66.4432 17.2362 68.8227 13.0325 66.8061Z" fill="white"/>
<path d="M25.9343 33.9807C28.1878 31.4231 31.205 29.826 34.7488 32.8836L40.0009 37.5586L37.5321 40.3605L33.3042 36.6437C31.2793 34.8636 29.6235 34.6222 27.5997 36.9191C25.949 38.7924 25.1248 41.6525 25.3684 43.3988L30.714 48.0982L28.2595 50.8838L15.3005 39.4913L17.755 36.7058L22.8414 41.1773C22.978 38.8691 23.8817 36.3101 25.9343 33.9807Z" fill="white"/>
<path d="M59.6991 11.0792L63.4542 9.37842L62.7408 23.6573L57.9184 25.8414L46.8328 16.9066L50.5879 15.2058L59.2819 22.3569L59.6991 11.0792Z" fill="white"/>
<path d="M68.1159 3.65487L71.7167 2.77566L72.462 5.90722L68.8612 6.78643L68.1159 3.65487ZM69.1713 8.08948L72.7721 7.21029L75.7182 19.5894L72.1174 20.4686L69.1713 8.08948Z" fill="white"/>
<path d="M92.1129 0.357662L95.8096 0.152367L96.6542 17.4353L92.9576 17.6406L92.8605 15.653C91.5477 17.1773 89.358 18.0571 86.6126 18.2096C82.5269 18.4365 78.9414 16.9243 78.7039 12.0634C78.4663 7.20264 81.8839 5.27986 85.9696 5.05296C88.715 4.90048 90.9786 5.53295 92.4329 6.90356L92.1129 0.357662ZM87.6938 15.0518C91.0013 14.8681 92.7697 13.7951 92.6472 11.2891C92.5237 8.76147 90.6603 7.89015 87.3528 8.07385C84.0453 8.25753 82.2986 9.32933 82.4221 11.857C82.5446 14.363 84.3863 15.2355 87.6938 15.0518Z" fill="white"/>
<path d="M109.045 16.7666C111.536 17.3101 113.161 17.1766 114.354 16.1062L117.944 16.8892C116.408 19.8807 112.988 20.7093 108.385 19.7052C103.655 18.6735 100.398 16.0117 101.424 11.4452C102.455 6.85759 106.441 5.77556 111.488 6.87637C116.218 7.90808 119.632 10.3604 118.359 16.0262L104.929 13.0969C104.884 15.1716 106.637 16.2415 109.045 16.7666ZM110.849 9.62009C108.379 9.08121 106.538 9.18977 105.574 10.8201L115.013 12.8789C114.794 10.9907 113.13 10.1175 110.849 9.62009Z" fill="white"/>
<path d="M127.811 26.7252C123.15 24.2763 120.911 20.9435 123.107 16.8032C125.314 12.6436 129.342 12.6028 134.004 15.0517C138.646 17.4905 140.904 20.8334 138.698 24.9929C136.502 29.1333 132.454 29.1641 127.811 26.7252ZM129.265 23.9841C132.284 25.5699 134.171 25.6052 135.412 23.2666C136.662 20.9089 135.568 19.3785 132.55 17.7927C129.512 16.197 127.625 16.1617 126.374 18.5194C125.134 20.8579 126.228 22.3883 129.265 23.9841Z" fill="white"/>
</svg>
